<svg id="Capa_1" enable-background="new 0 0 512 512" height="512" viewBox="0 0 512 512" width="512" xmlns="http://www.w3.org/2000/svg"><path d="m434.582 112.452 58.718-37.489c9.727-6.21 13.43-18.66 8.567-29.126-.07-.151-.142-.303-.215-.455-7.283-15.256 8.427-21.123-2.742-32.292-11.043-11.043-17.036 4.541-32.292-2.742-.152-.073-.304-.144-.456-.215-10.466-4.863-22.916-1.16-29.126 8.567l-37.489 58.719z" fill="#99573d"/><path d="m501.867 45.837c-.07-.151-.142-.303-.215-.455-7.283-15.256 8.427-21.123-2.742-32.292-3.53-3.53-6.544-4.334-9.51-4.038-1.089 8.49-11.388 17.555-5.979 28.885.073.153 0 0 .07.151 4.863 10.466 1.16 22.916-8.567 29.126l-53.071 32.512 12.728 12.728 58.719-37.491c9.728-6.21 13.43-18.66 8.567-29.126z" fill="#894c37"/><path d="m63.983 448.018c40.296 40.296 109.402 84.257 174.487 32.299 43.594-34.802 32.919-70.644 44.783-99.323s31.653-26.25 60.615-54.005c36.241-34.73 36.712-91.882-15.131-143.724-51.842-51.842-108.994-51.372-143.724-15.131-27.755 28.962-25.326 48.751-54.005 60.615s-64.521 1.188-99.323 44.783c-51.96 65.084-7.999 134.19 32.298 174.486z" fill="#fcc472"/><path d="m283.252 380.993c11.864-28.679 31.653-26.25 60.615-54.005 36.241-34.73 36.712-91.882-15.131-143.724-2.164-2.164-4.337-4.228-6.517-6.211 45.522 50.057 43.649 103.926 8.92 137.207-28.962 27.755-48.751 25.326-60.615 54.005s-1.188 64.521-44.783 99.323c-61.725 49.276-127.062 12.281-168.016-26.042 2.086 2.229 4.176 4.391 6.257 6.471 40.296 40.296 109.402 84.257 174.487 32.299 43.595-34.802 32.919-70.643 44.783-99.323z" fill="#f4b158"/><ellipse cx="215.192" cy="296.808" fill="#563e2f" rx="51.446" ry="51.446" transform="matrix(.707 -.707 .707 .707 -146.847 239.097)"/><path d="m251.57 260.43c-2.172-2.172-4.498-4.095-6.93-5.798 14.044 20.066 12.121 47.907-5.798 65.826s-45.76 19.841-65.826 5.798c1.702 2.433 3.625 4.758 5.798 6.93 20.091 20.091 52.665 20.091 72.756 0s20.091-52.665 0-72.756z" fill="#4c362a"/><path d="m173.362 414.487-75.849-75.849c-3.993-3.993-3.993-10.466 0-14.459l8.506-8.506c3.993-3.993 10.466-3.993 14.459 0l75.849 75.849c3.993 3.993 3.993 10.466 0 14.459l-8.506 8.506c-3.993 3.993-10.467 3.993-14.459 0z" fill="#563e2f"/><path d="m196.327 391.522-12.728-12.728c3.993 3.993 3.993 10.466 0 14.459l-8.506 8.506c-3.993 3.993-10.466 3.993-14.459 0l12.728 12.728c3.993 3.993 10.466 3.993 14.459 0l8.506-8.506c3.992-3.993 3.992-10.466 0-14.459z" fill="#4c362a"/><path d="m251.57 260.43c6.351 6.351 10.689 13.952 13.024 22.009l169.987-169.988-35.034-35.034-169.987 169.989c8.058 2.335 15.658 6.673 22.01 13.024z" fill="#725539"/><path d="m264.594 282.44 169.988-169.988-12.728-12.728-165.812 165.812c3.962 5.164 6.814 10.906 8.552 16.904z" fill="#6b4c32"/><path d="m111.092 321.073c1.065-1.065 2.796-1.064 3.86 0l16.987 16.988c2.934 2.934 7.692 2.934 10.626 0 2.935-2.935 2.935-7.693 0-10.627l-16.987-16.988c-6.924-6.924-18.189-6.924-25.112 0l-8.522 8.523c-6.924 6.924-6.924 18.19 0 25.114l75.991 75.995c3.462 3.462 8.009 5.194 12.556 5.193s9.095-1.731 12.556-5.193l8.523-8.523c6.923-6.924 6.923-18.19-.001-25.113l-37.751-37.753c-2.934-2.934-7.692-2.934-10.626 0-2.935 2.934-2.935 7.693 0 10.627l37.751 37.753c1.064 1.064 1.064 2.796 0 3.86l-8.522 8.522c-1.065 1.064-2.795 1.064-3.86 0l-75.991-75.995c-1.064-1.064-1.064-2.796 0-3.86z"/><path d="m499.182 80c11.875-8.504 16.194-24.438 10.002-37.763l-.249-.528c-2.161-4.527-1.225-7.256.191-11.387 1.894-5.527 4.757-13.88-4.405-23.043-9.07-9.07-17.414-6.248-22.935-4.382-4.176 1.412-6.933 2.345-11.51.159l-.512-.241c-13.326-6.191-29.259-1.872-37.761 10.003l-3.718-3.718c-2.933-2.935-7.691-2.934-10.626 0-2.934 2.935-2.934 7.692.001 10.627l6.028 6.028-4.837 7.576-3.831-3.831c-2.933-2.935-7.691-2.934-10.626 0-2.934 2.935-2.934 7.693.001 10.627l6.176 6.176-4.785 7.496-3.009-3.01c-2.934-2.934-7.692-2.935-10.626 0-2.935 2.934-2.935 7.692-.001 10.627l5.355 5.355-3.536 5.539-84.605 84.61c-34.565-23.801-71.972-28.788-103.478-13.536-3.736 1.808-5.298 6.302-3.489 10.037 1.808 3.736 6.3 5.297 10.037 3.49 25.79-12.483 56.787-8.473 86.105 10.836l-71.323 71.327c-18.839-3.9-39.224 1.432-53.815 16.023-23.026 23.028-23.026 60.496 0 83.523 11.513 11.514 26.636 17.271 41.76 17.271 15.123 0 30.246-5.757 41.759-17.271 14.591-14.591 19.922-34.978 16.022-53.818l71.325-71.328c12.363 18.739 18.571 38.198 17.998 56.715-.606 19.598-8.693 37.4-23.388 51.482-11.188 10.722-20.963 16.73-29.587 22.031-13.354 8.208-24.887 15.297-32.886 34.631-3.939 9.522-5.525 19.259-7.204 29.568-3.288 20.18-6.687 41.047-29.394 61.815-2.78 2.542-3.231 6.9-1.016 9.952 2.599 3.58 7.89 4.128 11.158 1.138 26.557-24.29 30.556-48.834 34.084-70.489 1.535-9.424 2.985-18.327 6.259-26.239 6.134-14.828 14.382-19.898 26.868-27.572 8.807-5.413 19.768-12.15 32.117-23.984 35.21-33.744 37.242-84.168 5.812-129.87l84.609-84.612 5.539-3.537 5.354 5.354c3.056 3.057 8.215 2.85 11.026-.431 2.519-2.941 2.337-7.46-.398-10.196l-3.009-3.01 7.495-4.785 6.177 6.177c3.055 3.057 8.216 2.85 11.025-.431 2.518-2.941 2.336-7.46-.4-10.196l-3.832-3.832 7.576-4.837 6.028 6.028c3.055 3.057 8.216 2.85 11.026-.431 2.518-2.941 2.336-7.46-.4-10.196zm-35.749-63.555.384.181c10.067 4.807 17.719 2.22 22.781.508 4.643-1.57 5.024-1.7 7.496.771 2.533 2.533 2.403 2.911.816 7.543-1.729 5.044-4.342 12.668.472 22.753l.173.367c3.263 7.022.764 15.483-5.812 19.682l-53.74 34.313-26.563-26.562 34.311-53.744c4.198-6.576 12.659-9.074 19.682-5.812zm-58.089 114.69-24.473-24.474 18.987-18.988 24.473 24.474zm-35.134 35.136-24.473-24.474 24.507-24.508 24.473 24.474zm-35.134 35.135-24.472-24.474 24.507-24.508 24.473 24.474zm-35.133 35.135-24.473-24.474 24.507-24.508 24.472 24.474zm-53.653 91.452c-17.166 17.166-45.098 17.168-62.266 0-17.166-17.168-17.166-45.102 0-62.27 8.584-8.584 19.857-12.875 31.133-12.875 11.273 0 22.55 4.293 31.133 12.875 8.316 8.317 12.896 19.374 12.896 31.135s-4.58 22.818-12.896 31.135zm10.626-72.897c-4.257-4.257-9.009-7.721-14.069-10.404l21.996-21.997 24.473 24.474-21.996 21.997c-2.683-5.061-6.147-9.813-10.404-14.07z"/><path d="m216.532 486.274c-24.683 13.124-51.785 14.113-80.549 2.942-28.157-10.936-51.979-31.144-67.006-46.171-16.931-16.932-39.172-43.693-48.982-75.029-10.186-32.539-4.405-62.749 17.182-89.792 22.483-28.165 45.086-31.847 66.943-35.409 10.308-1.679 20.044-3.266 29.566-7.205 19.333-7.998 26.421-19.532 34.629-32.887 5.301-8.625 11.309-18.401 22.031-29.589 2.871-2.997 2.77-7.753-.226-10.625-2.996-2.871-7.752-2.77-10.624.226-11.833 12.349-18.57 23.311-23.983 32.118-7.674 12.486-12.743 20.735-27.571 26.869-7.912 3.273-16.813 4.723-26.238 6.259-23.519 3.832-50.175 8.175-76.272 40.866-60.859 76.239 2.747 154.651 32.919 184.824 16.047 16.047 41.597 37.671 72.192 49.553 15.066 5.851 29.773 8.775 44.041 8.775 17.006 0 33.387-4.154 49.002-12.456 3.665-1.948 5.056-6.498 3.107-10.162-1.946-3.664-6.497-5.057-10.161-3.107z"/></svg>